<?xml version="1.0" encoding="utf-8"?>
<!-- Generator: Adobe Illustrator 16.0.4, SVG Export Plug-In . SVG Version: 6.00 Build 0)  -->
<!DOCTYPE svg PUBLIC "-//W3C//DTD SVG 1.1//EN" "http://www.w3.org/Graphics/SVG/1.1/DTD/svg11.dtd">
<svg version="1.1" id="Layer_1" xmlns="http://www.w3.org/2000/svg" xmlns:xlink="http://www.w3.org/1999/xlink" x="0px" y="0px"
	 width="606px" height="440px" viewBox="0 0 606 440" enable-background="new 0 0 606 440" xml:space="preserve">
<rect x="-546" fill="#2E424B" width="1152" height="440"/>
<text transform="matrix(1 0 0 1 -484.0732 190.5234)"><tspan x="0" y="0" fill="#FFFFFF" font-family="'OpenSans-Light'" font-size="47">In customer support,</tspan><tspan x="0" y="51.452" fill="#FFFFFF" font-family="'OpenSans-Semibold'" font-size="47">every minute counts.</tspan></text>
<text transform="matrix(1 0 0 1 -482.5708 309.5059)"><tspan x="0" y="0" fill="#95B9C1" font-family="'OpenSans-Bold'" font-size="24">Wise Support</tspan><tspan x="158.414" y="0" fill="#95B9C1" font-family="'OpenSans'" font-size="24"> uses powerful machine</tspan><tspan x="0" y="31.8" fill="#95B9C1" font-family="'OpenSans'" font-size="24">learning algorithms to automate ticket</tspan><tspan x="0" y="63.6" fill="#95B9C1" font-family="'OpenSans'" font-size="24">routing and reduce handling time.</tspan></text>
<circle fill="none" stroke="#8AACB2" stroke-width="12" stroke-miterlimit="10" cx="325.88" cy="347.24" r="115.405"/>
<circle fill="none" stroke="#8AACB2" stroke-width="3" stroke-miterlimit="10" cx="325.88" cy="192.024" r="29.061"/>
<polygon fill="#52B178" points="268.887,383.776 267.184,381.034 331.584,342.83 395.986,304.628 333.289,345.568 270.594,386.514 
	"/>
<circle fill="#2E424B" stroke="#52B178" stroke-width="3" stroke-miterlimit="10" cx="325.88" cy="348.239" r="7.669"/>
<path fill="#8AACB2" stroke="#8AACB2" stroke-width="3" stroke-miterlimit="10" d="M400.069,243.008
	c-0.204,0.347-0.574,0.506-0.825,0.357l-17.26-10.212c-0.25-0.148-0.287-0.548-0.084-0.895l8.415-14.22
	c0.204-0.346,0.573-0.506,0.823-0.357l17.26,10.213c0.252,0.147,0.289,0.549,0.084,0.895L400.069,243.008z"/>
<path fill="#8AACB2" stroke="#8AACB2" stroke-miterlimit="10" d="M333.549,226.828c0,0.467-0.378,0.844-0.845,0.844h-13.648
	c-0.467,0-0.845-0.377-0.845-0.844V213.18c0-0.467,0.378-0.845,0.845-0.845h13.648c0.467,0,0.845,0.378,0.845,0.845V226.828z"/>
<ellipse fill="#8AACB2" cx="325.88" cy="204.115" rx="15.972" ry="9.768"/>
<g>
	<path fill="none" stroke="#5A7C82" stroke-width="2" stroke-miterlimit="10" stroke-dasharray="11.8295,7.8863" d="
		M423.148,347.236c0,53.725-43.556,97.274-97.27,97.274c-53.721,0-97.269-43.55-97.269-97.274c0-53.723,43.548-97.269,97.269-97.269
		C379.593,249.968,423.148,293.514,423.148,347.236z"/>
</g>
<circle fill="none" stroke="#608A91" stroke-width="4" stroke-miterlimit="10" cx="148.695" cy="231.75" r="53.2"/>
<circle fill="none" stroke="#608A91" stroke-width="2" stroke-miterlimit="10" cx="148.695" cy="160.737" r="13.396"/>
<polygon fill="#3D915F" points="116.33,223.69 116.669,222.241 150.113,230.78 183.559,239.32 149.777,232.228 115.994,225.139 "/>
<circle fill="#2E424B" stroke="#3D915F" stroke-width="2" stroke-miterlimit="10" cx="148.695" cy="231.749" r="3.535"/>
<path fill="#608A91" stroke="#608A91" stroke-width="2" stroke-miterlimit="10" d="M182.895,183.239
	c-0.094,0.16-0.265,0.233-0.38,0.165l-7.957-4.708c-0.115-0.068-0.132-0.252-0.038-0.412l3.879-6.555
	c0.094-0.159,0.265-0.233,0.38-0.165l7.956,4.708c0.116,0.068,0.133,0.253,0.039,0.412L182.895,183.239z"/>
<path fill="#608A91" d="M152.23,176.242c0,0.215-0.175,0.389-0.39,0.389h-6.292c-0.215,0-0.389-0.174-0.389-0.389v-6.292
	c0-0.215,0.174-0.39,0.389-0.39h6.292c0.215,0,0.39,0.175,0.39,0.39V176.242z"/>
<ellipse fill="#608A91" cx="148.695" cy="165.771" rx="7.363" ry="4.503"/>
<g>
	<path fill="none" stroke="#527B7F" stroke-miterlimit="10" stroke-dasharray="6.0356,8.0475" d="M193.534,231.748
		c0,24.766-20.079,44.842-44.84,44.842c-24.764,0-44.839-20.076-44.839-44.842s20.075-44.839,44.839-44.839
		C173.455,186.909,193.534,206.982,193.534,231.748z"/>
</g>
<circle fill="none" stroke="#608A91" stroke-width="4" stroke-miterlimit="10" cx="459.694" cy="153.368" r="53.2"/>
<circle fill="none" stroke="#608A91" stroke-width="2" stroke-miterlimit="10" cx="459.694" cy="82.355" r="13.396"/>
<polygon fill="#3D915F" points="477.306,182.418 476.041,183.203 458.431,153.517 440.82,123.828 459.693,152.73 478.567,181.632 
	"/>
<circle fill="#2E424B" stroke="#3D915F" stroke-width="2" stroke-miterlimit="10" cx="459.694" cy="153.367" r="3.535"/>
<path fill="#608A91" stroke="#608A91" stroke-width="2" stroke-miterlimit="10" d="M493.894,104.857
	c-0.094,0.16-0.265,0.233-0.38,0.165l-7.957-4.708c-0.115-0.068-0.132-0.252-0.038-0.412l3.879-6.555
	c0.094-0.159,0.265-0.233,0.38-0.165l7.956,4.708c0.116,0.068,0.133,0.253,0.039,0.412L493.894,104.857z"/>
<path fill="#608A91" d="M463.229,97.86c0,0.215-0.175,0.389-0.39,0.389h-6.292c-0.215,0-0.389-0.174-0.389-0.389v-6.292
	c0-0.215,0.174-0.39,0.389-0.39h6.292c0.215,0,0.39,0.175,0.39,0.39V97.86z"/>
<ellipse fill="#608A91" stroke="#608A91" stroke-miterlimit="10" cx="459.694" cy="87.39" rx="7.363" ry="4.503"/>
<g>
	<path fill="none" stroke="#527B7F" stroke-miterlimit="10" stroke-dasharray="6.0356,8.0475" d="M504.533,153.366
		c0,24.766-20.079,44.842-44.84,44.842c-24.764,0-44.839-20.076-44.839-44.842s20.075-44.839,44.839-44.839
		C484.454,108.527,504.533,128.601,504.533,153.366z"/>
</g>
<circle fill="none" stroke="#608A91" stroke-width="4" stroke-miterlimit="10" cx="87.21" cy="36.64" r="53.199"/>
<circle fill="none" stroke="#608A91" stroke-width="2" stroke-miterlimit="10" cx="87.21" cy="-34.373" r="13.396"/>
<polygon fill="#3D915F" points="80.12,69.085 78.671,68.747 87.209,35.303 95.75,1.857 88.657,35.639 81.567,69.422 "/>
<circle fill="#2E424B" stroke="#3D915F" stroke-width="2" stroke-miterlimit="10" cx="87.21" cy="36.639" r="3.535"/>
<path fill="#608A91" stroke="#608A91" stroke-width="2" stroke-miterlimit="10" d="M121.409-11.871
	c-0.094,0.16-0.264,0.233-0.379,0.165l-7.957-4.708c-0.115-0.068-0.133-0.252-0.039-0.412l3.879-6.555
	c0.094-0.159,0.266-0.233,0.381-0.165l7.955,4.708c0.117,0.068,0.133,0.253,0.039,0.412L121.409-11.871z"/>
<path fill="#608A91" d="M90.745-18.868c0,0.215-0.174,0.389-0.389,0.389h-6.293c-0.215,0-0.389-0.174-0.389-0.389v-6.292
	c0-0.215,0.174-0.39,0.389-0.39h6.293c0.215,0,0.389,0.175,0.389,0.39V-18.868z"/>
<ellipse fill="#608A91" cx="87.21" cy="-29.339" rx="7.363" ry="4.503"/>
<g>
	<path fill="none" stroke="#527B7F" stroke-miterlimit="10" stroke-dasharray="6.0356,8.0475" d="M132.05,36.638
		c0,24.766-20.08,44.842-44.84,44.842c-24.764,0-44.84-20.076-44.84-44.842S62.446-8.201,87.21-8.201
		C111.97-8.201,132.05,11.872,132.05,36.638z"/>
</g>
<circle fill="none" stroke="#608A91" stroke-width="3" stroke-miterlimit="10" cx="95.496" cy="368.178" r="32.903"/>
<circle fill="none" stroke="#608A91" stroke-miterlimit="10" cx="95.496" cy="324.639" r="8.286"/>
<polygon fill="#3D915F" points="85.078,351.053 85.859,350.565 96.752,368.927 107.644,387.289 95.971,369.414 84.298,351.537 "/>
<circle fill="#2E424B" stroke="#3D915F" stroke-miterlimit="10" cx="95.496" cy="368.178" r="2.187"/>
<path fill="#608A91" stroke="#608A91" stroke-miterlimit="10" d="M116.647,338.175c-0.058,0.099-0.163,0.145-0.234,0.102
	l-4.921-2.911c-0.071-0.043-0.082-0.156-0.024-0.255l2.399-4.055c0.058-0.098,0.164-0.144,0.235-0.102l4.92,2.912
	c0.072,0.042,0.082,0.156,0.024,0.255L116.647,338.175z"/>
<path fill="#608A91" d="M97.683,333.847c0,0.133-0.107,0.241-0.24,0.241H93.55c-0.133,0-0.24-0.108-0.24-0.241v-3.891
	c0-0.133,0.107-0.241,0.24-0.241h3.893c0.133,0,0.24,0.108,0.24,0.241V333.847z"/>
<ellipse fill="#608A91" cx="95.496" cy="327.371" rx="4.554" ry="2.785"/>
<g>
	
		<circle fill="none" stroke="#527B7F" stroke-miterlimit="10" stroke-dasharray="2.9694,7.9184" cx="95.496" cy="368.177" r="27.733"/>
</g>
<circle fill="none" stroke="#608A91" stroke-width="3" stroke-miterlimit="10" cx="242.399" cy="97.351" r="32.903"/>
<circle fill="none" stroke="#608A91" stroke-width="2" stroke-miterlimit="10" cx="242.399" cy="53.812" r="8.286"/>
<polygon fill="#3D915F" points="228.146,106.627 227.66,105.846 246.021,94.953 264.383,84.062 246.508,95.733 228.632,107.407 "/>
<circle fill="#2E424B" stroke="#3D915F" stroke-miterlimit="10" cx="242.399" cy="97.351" r="2.187"/>
<path fill="#608A91" stroke="#608A91" stroke-width="2" stroke-miterlimit="10" d="M263.551,67.348
	c-0.058,0.099-0.163,0.145-0.234,0.102l-4.921-2.911c-0.071-0.043-0.082-0.156-0.024-0.255l2.399-4.055
	c0.058-0.098,0.164-0.144,0.235-0.102l4.92,2.912c0.072,0.042,0.082,0.156,0.024,0.255L263.551,67.348z"/>
<path fill="#608A91" d="M244.586,63.02c0,0.133-0.107,0.241-0.24,0.241h-3.893c-0.133,0-0.24-0.108-0.24-0.241v-3.891
	c0-0.133,0.107-0.241,0.24-0.241h3.893c0.133,0,0.24,0.108,0.24,0.241V63.02z"/>
<ellipse fill="#608A91" cx="242.399" cy="56.544" rx="4.554" ry="2.785"/>
<g>
	
		<circle fill="none" stroke="#527B7F" stroke-miterlimit="10" stroke-dasharray="2.9694,7.9184" cx="242.399" cy="97.35" r="27.733"/>
</g>
<circle fill="none" stroke="#608A91" stroke-width="3" stroke-miterlimit="10" cx="584.845" cy="240.498" r="32.903"/>
<circle fill="none" stroke="#608A91" stroke-width="2" stroke-miterlimit="10" cx="584.845" cy="196.959" r="8.286"/>
<polygon fill="#3D915F" points="603.829,228.209 604.315,228.99 585.955,239.883 567.593,250.774 585.468,239.103 603.344,227.429 
	"/>
<circle fill="#2E424B" stroke="#3D915F" stroke-miterlimit="10" cx="584.846" cy="240.498" r="2.187"/>
<path fill="#608A91" stroke="#608A91" stroke-width="2" stroke-miterlimit="10" d="M605.997,210.495
	c-0.058,0.099-0.163,0.145-0.234,0.102l-4.921-2.911c-0.071-0.043-0.082-0.156-0.024-0.255l2.399-4.055
	c0.058-0.098,0.164-0.144,0.235-0.102l4.92,2.912c0.072,0.042,0.082,0.156,0.024,0.255L605.997,210.495z"/>
<path fill="#608A91" d="M587.032,206.167c0,0.133-0.107,0.241-0.24,0.241h-3.893c-0.133,0-0.24-0.108-0.24-0.241v-3.891
	c0-0.133,0.107-0.241,0.24-0.241h3.893c0.133,0,0.24,0.108,0.24,0.241V206.167z"/>
<ellipse fill="#608A91" cx="584.845" cy="199.691" rx="4.554" ry="2.785"/>
<g>
	
		<circle fill="none" stroke="#527B7F" stroke-miterlimit="10" stroke-dasharray="2.9694,7.9184" cx="584.845" cy="240.497" r="27.733"/>
</g>
<g>
	<g>
		<path fill="#9BC6BF" d="M-374.942,68.217c0.227-0.634-0.347-0.971-0.458-1.011c0,0-7.884-3.6-18.021-5.544
			c-5.083-0.976-10.094-1.315-14.938-1.416c-3.637-0.075-7.623,0.38-10.835,0.976c-0.013,0.006,0.094,0.217,0.094,0.219
			s-0.023-0.204-0.023-0.203c-0.633,0.183-0.814,0.536-0.735,1.095s0.126,1.676,0.364,2.029c0.163,0.242,0.488,0.182,0.642,0.157
			c0.001,0,0.367-0.07,0.368-0.07c0.387-0.05,4.063-0.853,10.664-1.032c4.119-0.112,8.666,0.405,13.491,1.095
			c7.135,1.021,17.27,5.064,17.27,5.064c0.001,0,0.002,0.001,0.004,0.001l0,0l0.291,0.104c0.402,0.144,1.014,0.32,1.458-0.249
			C-375.307,69.434-375.021,68.439-374.942,68.217z"/>
		<path fill="#9BC6BF" d="M-346.651,66.082c0.196-0.652-0.698-0.788-0.822-0.797c0,0-2.646-0.545-5.694-0.588
			c-6.73-0.095-12.691,2.688-12.748,2.716c-0.302,0.155-0.478,0.462-0.339,0.949c0.21,0.735,0.473,1.169,0.473,1.169
			c0.521,0.611,0.927,0.409,1.336,0.274c0,0,1.829-0.614,2.474-0.796c8.143-2.311,13.431-1.009,13.431-1.009
			c0.713,0.194,0.891-0.109,1.091-0.371L-346.651,66.082z"/>
	</g>
	<g>
		<g>
			<path fill="#FFFFFF" d="M-431.418,92.427h-1.365c-0.606,0-0.924-0.242-1.083-0.446c-0.204-0.26-0.268-0.61-0.172-0.938
				l5.517-19.475c0.156-0.533,0.7-1.102,1.755-1.102h1.365c0.545,0,0.917,0.137,1.138,0.418c0.291,0.371,0.16,0.817,0.117,0.964
				l-5.517,19.476C-429.744,91.597-429.988,92.427-431.418,92.427z"/>
		</g>
		<g>
			<path fill="#FFFFFF" d="M-422.317,64.284c-0.083,1.349-1.29,2.327-2.483,2.327c-1.284,0.001-2.323-1.022-2.242-2.324
				c0.08-1.303,1.155-2.373,2.485-2.374C-423.272,61.912-422.237,62.981-422.317,64.284z"/>
		</g>
		<g>
			<path fill="#FFFFFF" d="M-380.098,90.383c-0.169,1.247-1.366,2.15-2.484,2.15c-1.203,0-2.106-0.946-1.943-2.15
				s1.244-2.193,2.49-2.193C-380.832,88.19-379.934,89.179-380.098,90.383z"/>
		</g>
		<g>
			<path fill="#FFFFFF" d="M-375.007,92.529h-1.468c-0.541,0-0.827-0.219-0.971-0.403c-0.186-0.237-0.245-0.555-0.158-0.851
				l3.817-14.234c0.14-0.479,0.618-0.982,1.546-0.982l1.467,0c0.484,0,0.817,0.124,1.018,0.38c0.268,0.34,0.15,0.742,0.111,0.874
				l-3.817,14.234C-373.658,92.21-374.162,92.529-375.007,92.529z"/>
		</g>
		<g>
			<path fill="#FFFFFF" d="M-418.666,92.48c-2.358,0-4.66-0.39-6.176-0.717c-0.388-0.084-0.666-0.253-0.824-0.503
				c-0.233-0.366-0.118-0.756-0.057-0.966l0.022-0.061c0.126-0.273,0.185-0.424,0.242-0.569c0.063-0.161,0.123-0.314,0.256-0.596
				c0.119-0.271,0.348-0.789,1.181-0.789c0.141,0,0.297,0.015,0.464,0.046c1.48,0.268,3.438,0.575,5.448,0.575
				c3.544,0,5.078-0.737,5.66-2.719c0.171-0.583,0.163-0.999-0.026-1.308c-0.443-0.722-2.005-1.118-4.371-1.717
				c-2.351-0.594-4.079-1.254-4.873-2.548c-0.6-0.979-0.634-2.271-0.106-4.068c1.149-3.912,4.521-5.813,10.309-5.813
				c2.193,0,3.143,0.125,5.296,0.483c0.615,0.103,1.002,0.296,1.216,0.607c0.259,0.376,0.152,0.792,0.117,0.928l-0.013,0.039
				l-0.449,1.142c-0.214,0.562-0.671,0.849-1.357,0.849c-0.152,0-0.316-0.013-0.517-0.04c-1.736-0.243-3.203-0.428-4.947-0.428
				c-3.606,0-4.604,0.931-5.044,2.432c-0.182,0.62-0.171,1.067,0.034,1.408c0.434,0.72,1.83,1.141,3.911,1.701
				c2.993,0.763,4.656,1.381,5.426,2.64c0.56,0.914,0.583,2.089,0.078,3.81C-409.022,90.573-412.384,92.48-418.666,92.48z"/>
		</g>
		<g>
			<path fill="#FFFFFF" d="M-395.61,92.499c-3.815,0-6.291-0.791-7.567-2.418c-1.727-2.202-1.042-5.651-0.043-9.05
				c2.033-6.921,6.292-10.286,13.021-10.286c3.149,0,5.257,0.765,6.446,2.339c1.454,1.925,1.408,4.935-0.143,9.471
				c-0.211,0.482-0.574,0.713-1.09,0.713h-13.93c-0.487,1.803-0.36,3.193,0.379,4.135c0.767,0.978,2.202,1.474,4.267,1.474
				c2.046,0,3.859-0.17,5.707-0.535c0.135-0.027,0.262-0.04,0.379-0.04c0.426,0,0.675,0.179,0.809,0.329
				c0.21,0.237,0.292,0.57,0.237,0.963l-0.11,0.879c-0.087,0.689-0.508,1.118-1.249,1.272
				C-390.864,92.238-393.324,92.499-395.61,92.499z M-397.855,79.811l10.096,0l0.039-0.134c0.619-2.107,0.605-3.533-0.041-4.357
				c-0.539-0.687-1.607-1.035-3.176-1.035c-3.563,0-5.86,1.755-6.828,5.217L-397.855,79.811z"/>
		</g>
		<g>
			<path fill="#FFFFFF" d="M-361.186,92.612c-3.123,0-5.191-0.702-6.321-2.146c-1.217-1.556-1.298-3.919-0.253-7.438
				c1.367-4.6,3.846-9.302,11.879-9.302c2.963,0,5.07,0.714,6.264,2.123c1.013,1.196,1.322,2.826,0.918,4.845
				c-0.246,1.256-0.621,2.519-1.018,3.856C-351.285,89.824-355.25,92.612-361.186,92.612z M-356.536,76.955
				c-4.276,0-5.62,2.092-7.012,6.78c-0.708,2.382-0.742,3.869-0.109,4.678c0.51,0.652,1.533,0.969,3.125,0.969
				c4.757,0,5.864-2.912,7.275-7.665c0.515-1.736,0.482-2.993-0.1-3.736C-353.888,77.3-354.958,76.955-356.536,76.955
				L-356.536,76.955z"/>
		</g>
		<g>
			<path fill="#FFFFFF" d="M-368.349,70.487c-0.013,1.259-1.108,2.17-2.236,2.17c-1.215,0-2.246-0.955-2.233-2.17
				c0.013-1.216,0.978-2.214,2.236-2.214C-369.367,68.273-368.336,69.271-368.349,70.487z"/>
		</g>
		<g>
			<path fill="#FFFFFF" d="M-450.536,92.919c-0.028,0.003-0.054,0.008-0.082,0.011C-450.586,92.963-450.547,92.942-450.536,92.919z"
				/>
			<path fill="#FFFFFF" d="M-429.167,66.902l-0.259-1.547c-0.077-0.546-0.407-0.653-0.766-0.661c0,0-8.931,1.943-12.733,16.851
				c-1.266,4.964-3.538,7.493-6.81,7.493c0,0-0.538,0.05-0.821,0.054c-1.757,0.026-2.938-0.32-3.522-1.006
				c-0.724-0.851-0.73-2.422-0.021-4.944c0.002-0.008,0.004-0.015,0.006-0.023l4.485-13.308c0.043-0.162,0.174-0.654-0.165-1.061
				c-0.257-0.307-0.563-0.456-1.173-0.452l-1.119,0.006c-1.181,0.006-1.769,0.636-1.925,1.223l-4.545,13.617h0.003
				c-1.215,3.764-2.476,6.007-6.944,6.033c-1.759,0.01-2.897-0.319-3.481-1.005c-0.724-0.851-0.73-2.422-0.022-4.944
				c0.131-0.464,0.262-0.897,0.396-1.314h-0.001c1.764-5.187,4.731-13.716,4.754-13.817c0.362-1.574,0.041-3.989-5.932-4.181
				c-7.218-0.231-12.9,2.67-12.9,2.67c-0.414,0.255-0.636,0.678-0.177,1.308c0.143,0.196,1.248,1.107,1.371,1.287
				c0.259,0.379,0.834,0.56,1.585,0.211c1.201-0.558,5.097-2.22,10.131-2.083c1.044,0.029,1.484,0.063,1.367,0.303
				c0,0-2.398,7.08-4.602,14.491c-0.025,0.084-0.05,0.168-0.074,0.253c-1.046,3.725-0.844,6.516,0.548,8.153
				c1.292,1.519,3.006,2.399,6.455,2.379c3.476-0.02,6.083-0.873,8.218-2.494c0.045,0.059,0.089,0.119,0.137,0.176
				c1.292,1.519,3.115,2.252,6.563,2.233c0.241-0.001,0.476-0.007,0.706-0.016c7.56,0.006,9.922-4.979,10.86-8.752
				c3.263-13.133,9.676-15.736,9.676-15.736C-428.88,68.005-429.102,67.353-429.167,66.902z"/>
		</g>
	</g>
</g>
</svg>
